<svg xmlns:inkscape="http://www.inkscape.org/namespaces/inkscape" xmlns:sodipodi="http://sodipodi.sourceforge.net/DTD/sodipodi-0.dtd" xmlns="http://www.w3.org/2000/svg" xmlns:svg="http://www.w3.org/2000/svg" id="logo-company-ff0f92c3" fill="none" style="max-height: 500px" version="1.1" sodipodi:docname="logo-company-DotFyIXQ-cropped.svg" inkscape:version="1.4.3 (0d15f75, 2025-12-25)" viewBox="2.05 0.25 91.91 25.38">
  <defs id="defs1"/>
  <sodipodi:namedview id="namedview1" pagecolor="#ffffff" bordercolor="#000000" borderopacity="0.25" inkscape:showpageshadow="2" inkscape:pageopacity="0.0" inkscape:pagecheckerboard="0" inkscape:deskcolor="#d1d1d1" inkscape:zoom="11.358292" inkscape:cx="49.259167" inkscape:cy="20.469627" inkscape:window-width="1478" inkscape:window-height="768" inkscape:window-x="0" inkscape:window-y="44" inkscape:window-maximized="0" inkscape:current-layer="logo-company-ff0f92c3"/>
  <path fill-rule="evenodd" fill="currentColor" d="M 27.42,0.88 H 20.93 L 2.05,25.04 h 6.5 z M 12.72,25.04 H 27.03 V 6.72 Z M 69.89,2.91 C 68.62,1.56 66.62,0.88 63.97,0.88 H 51.56 v 24.16 h 6.37 v -8.02 h 5.15 c 2.99,0 5.21,-0.74 6.61,-2.19 1.41,-1.46 2.09,-3.45 2.09,-6.1 0,-2.65 -0.62,-4.48 -1.9,-5.83 m -5.45,9.02 c -0.78,0.74 -2.01,1.1 -3.76,1.1 H 57.93 V 4.89 h 3.06 c 1.73,0 2.92,0.39 3.62,1.21 0.68,0.79 1.03,1.76 1.03,2.89 0,1.19 -0.41,2.17 -1.21,2.94 m 28.6,2.13 c -0.6,-1 -1.6,-1.86 -2.96,-2.56 C 88.63,10.77 86.18,10.03 82.79,9.29 81.18,8.96 80.24,8.6 79.76,8.17 79.05,7.57 78.9,6.9 78.9,6.45 c 0,-0.8 0.34,-1.51 0.99,-2.05 0.61,-0.51 1.49,-0.78 2.61,-0.78 1.31,0 2.37,0.33 3.16,0.97 0.57,0.47 0.99,1.13 1.27,1.96 h 6.05 C 92.59,4.54 91.73,3.08 90.36,2.11 88.78,0.99 86.4,0.25 83.29,0.25 c -2.56,0 -4.58,0.49 -6.01,1.11 -1.39,0.61 -2.44,1.44 -3.11,2.48 -0.69,1.05 -1.02,2.14 -1.02,3.31 0,1.79 0.65,3.22 1.98,4.37 1.38,1.21 3.77,2.2 7.11,2.95 2.32,0.51 3.73,1.05 4.44,1.68 0.76,0.68 1.15,1.49 1.15,2.39 0,0.9 -0.4,1.77 -1.2,2.46 -0.76,0.66 -1.82,1 -3.15,1 -1.78,0 -3.17,-0.63 -4.15,-1.87 -0.43,-0.54 -0.74,-1.23 -0.96,-2.08 h -6.09 c 0.32,2.05 1.15,3.73 2.54,5.12 1.52,1.52 4.4,2.46 8.54,2.46 2.37,0 4.35,-0.51 5.88,-1.18 1.49,-0.65 2.66,-1.62 3.48,-2.88 0.81334,-1.22343 1.244927,-2.660892 1.24,-4.13 0,-1.25 -0.31,-2.4 -0.91,-3.4 m -62.73,11 V 0.88 h 6.35 V 20.3 H 49.1 v 4.74 z" id="path1" sodipodi:nodetypes="ccccccccccsccccscsccsccscscccccscsccccsccscccscscccssccccccccccc"/>
</svg>