<?xml version="1.0" encoding="UTF-8" standalone="no"?>
<svg
   version="1.1"
   id="svg2"
   viewBox="280 245 640 375"
   xmlns="http://www.w3.org/2000/svg"
   xmlns:svg="http://www.w3.org/2000/svg">
  <defs
     id="defs2" />
  <g
     id="g2">
    <path
       d="m 319.7,607.03 c -21.33,1.04 -30.7,1.21 -30.7,0.55 0,-0.22 2.3,-7.09 5.1,-15.25 19.16,-55.69 37.92,-81.28 76.9,-104.88 17.92,-10.85 40.59,-19.53 62.5,-23.95 27.59,-5.56 113.52,-12.59 207.5,-16.97 60.61,-2.83 80.99,-3.87 80.72,-4.14 -0.15,-0.15 -47.96,-8.18 -106.25,-17.85 -150.99,-25.04 -147.29,-24.4 -154.93,-26.66 -22.88,-6.78 -42.9,-23.28 -52.52,-43.3 -7,-14.57 -9.09,-26.68 -7.09,-41.06 0.97,-6.94 9.48,-47.34 12.15,-57.66 l 0.94,-3.63 5.74,1.39 c 7.55,1.83 98.25,21.69 118.74,26 25.52,5.37 40.27,6.78 71,6.81 15.61,0.01 31.64,-0.52 38,-1.25 52.4,-6.07 125.96,-19.56 173.31,-31.78 16.16,-4.18 49.13,-15.05 58.58,-19.33 3.8,-1.71 7.05,-2.97 7.23,-2.79 0.18,0.18 -4.86,14.26 -11.2,31.28 -6.33,17.01 -13.93,37.46 -16.87,45.44 -2.95,7.98 -7.07,18.92 -9.16,24.32 -2.99,7.73 -3.52,9.98 -2.48,10.63 0.73,0.44 6.33,1.43 12.45,2.18 12.94,1.59 67.42,1.71 77.41,0.17 6.09,-0.95 6.24,-0.92 5.61,1.11 -0.36,1.15 -6.49,15.59 -13.61,32.09 -7.13,16.5 -16.69,38.77 -21.24,49.5 -4.56,10.73 -11.66,27.38 -15.8,37 -4.13,9.62 -10.54,24.7 -14.25,33.5 -7.72,18.35 -14.42,34.21 -27.04,64.08 l -8.91,21.07 -27.02,1.22 c -14.85,0.66 -41.63,1.86 -59.51,2.66 -17.88,0.8 -47.35,2.11 -65.5,2.93 -18.15,0.81 -44.03,1.96 -57.5,2.54 -13.47,0.59 -38,1.73 -54.5,2.52 -16.5,0.8 -41.92,1.91 -56.5,2.46 -14.58,0.56 -35.5,1.45 -46.5,1.99 -20.15,0.99 -37.26,1.77 -100.5,4.57 -18.98,0.83 -43.41,1.96 -54.3,2.49 z"
       fill="#e1181c"
       id="path1" />
  </g>
</svg>
