<svg xmlns="http://www.w3.org/2000/svg" viewBox="192.38 234 451.6 631.81">
<path d="M 437.14 864.95 C405.25,868.19 364.89,862.10 334.25,849.43 C266.20,821.30 217.18,766.37 199.54,698.50 C180.47,625.14 200.02,547.67 251.64,492.11 C261.25,481.76 280.60,465.52 292.95,457.45 C307.79,447.73 333.19,434.86 334.64,436.31 C334.96,436.63 331.73,452.10 327.45,470.70 C321.08,498.35 319.29,504.77 317.59,506.00 C316.45,506.83 311.00,511.39 305.48,516.14 C276.38,541.18 258.14,572.46 249.88,611.50 C246.59,627.05 246.59,656.39 249.89,672.00 C261.18,725.48 294.72,769.17 342.50,792.66 C390.87,816.42 444.15,816.72 492.50,793.48 C528.05,776.40 554.60,749.89 572.95,713.15 C584.97,689.09 591.77,653.76 589.10,629.20 C583.73,579.73 562.17,540.42 523.54,509.70 L 516.58 504.17 L 514.44 494.33 C513.26,488.93 509.75,473.80 506.65,460.72 C503.54,447.64 501.00,436.72 501.00,436.47 C501.00,433.61 527.70,446.88 544.50,458.10 C607.62,500.23 644.06,567.83 643.98,642.67 C643.95,677.67 637.01,707.97 622.02,738.63 C594.93,794.00 547.55,835.03 488.27,854.43 C471.62,859.88 456.57,862.98 437.14,864.95 ZM 324.50 719.94 C312.40,729.49 301.94,737.73 301.25,738.27 C300.34,738.98 300.00,738.70 300.00,737.26 C300.00,736.16 303.58,718.22 307.95,697.38 C312.32,676.55 317.93,649.83 320.41,638.00 C322.89,626.17 326.29,610.20 327.96,602.50 C329.63,594.80 335.70,566.00 341.44,538.50 C347.19,511.00 352.60,485.12 353.47,481.00 C354.34,476.88 357.04,463.83 359.47,452.00 C365.67,421.77 375.36,375.75 379.99,354.50 C382.15,344.60 385.98,326.60 388.50,314.50 C391.03,302.40 394.18,287.33 395.51,281.00 C402.86,246.03 405.00,235.61 405.00,234.85 C405.00,234.38 405.45,234.00 406.00,234.00 C406.66,234.00 407.00,301.80 407.00,435.41 L 407.00 636.81 L 412.14 641.44 C414.97,643.98 417.10,646.21 416.89,646.39 C415.03,647.99 341.67,706.40 324.50,719.94 ZM 534.36 725.78 C535.64,731.99 536.41,737.25 536.06,737.46 C535.06,738.08 533.39,736.78 462.76,680.58 L 419.02 645.78 L 423.90 641.89 C426.59,639.75 429.06,637.29 429.39,636.42 C429.73,635.55 430.03,544.76 430.06,434.67 C430.10,313.11 430.48,235.39 431.04,236.77 C431.54,238.02 434.89,253.09 438.48,270.27 C442.07,287.45 445.45,303.30 446.00,305.50 C446.55,307.70 447.68,312.88 448.53,317.00 C450.29,325.65 457.50,359.83 462.02,381.00 C463.73,388.98 466.42,401.80 468.00,409.50 C469.59,417.20 472.73,432.27 474.99,443.00 C477.25,453.73 481.53,474.20 484.50,488.50 C487.48,502.80 491.77,523.28 494.04,534.00 C498.08,553.11 502.15,572.53 507.99,600.50 C509.59,608.20 514.54,631.60 518.99,652.50 C523.43,673.40 528.18,695.90 529.54,702.50 C530.90,709.10 533.07,719.58 534.36,725.78 Z" fill="rgb(244,29,30)"/>
</svg>