<?xml version="1.0" encoding="UTF-8" standalone="no"?>
<svg
   width="400"
   height="400"
   viewBox="0 0 400 400"
   version="1.1"
   id="svg3"
   sodipodi:docname="RndZRGB_400x.svg"
   inkscape:version="1.4.3 (0d15f75, 2025-12-25)"
   xmlns:inkscape="http://www.inkscape.org/namespaces/inkscape"
   xmlns:sodipodi="http://sodipodi.sourceforge.net/DTD/sodipodi-0.dtd"
   xmlns="http://www.w3.org/2000/svg"
   xmlns:svg="http://www.w3.org/2000/svg">
  <defs
     id="defs3" />
  <sodipodi:namedview
     id="namedview3"
     pagecolor="#ffffff"
     bordercolor="#000000"
     borderopacity="0.25"
     inkscape:showpageshadow="2"
     inkscape:pageopacity="0.0"
     inkscape:pagecheckerboard="0"
     inkscape:deskcolor="#d1d1d1"
     inkscape:zoom="1.157819"
     inkscape:cx="-41.889104"
     inkscape:cy="298.83773"
     inkscape:window-width="1800"
     inkscape:window-height="1069"
     inkscape:window-x="0"
     inkscape:window-y="44"
     inkscape:window-maximized="0"
     inkscape:current-layer="g3" />
  <g
     id="g3">
    <path
       d="M 0.04 225.75 L 0.00 400.00 L 0.00 0.00 L 393.17 0.00 L 396.34 3.37 C398.08,5.23 399.61,6.80 399.75,6.87 C399.89,6.94 400.00,5.43 400.00,3.50 C400.00,0.18 399.82,0.00 396.59,0.00 L 400.00 0.00 L 400.00 360.87 C400.00,321.77 400.00,321.73 398.03,324.23 C396.95,325.60 394.82,327.24 393.28,327.87 C391.23,328.72 353.17,328.95 247.50,328.76 L 104.50 328.50 L 104.23 326.00 C104.02,324.07 106.73,320.21 116.16,309.00 C122.87,301.02 137.42,283.70 148.48,270.50 C159.55,257.30 171.45,243.12 174.92,239.00 C178.40,234.88 186.51,225.20 192.96,217.50 C199.41,209.80 212.24,194.50 221.48,183.50 C230.72,172.50 246.95,153.15 257.56,140.50 C268.16,127.85 286.79,105.63 298.96,91.12 C320.12,65.89 321.01,64.67 319.39,62.87 C317.74,61.06 312.94,61.00 163.30,61.00 C152.39,61.00 142.24,61.00 132.77,61.00 C14.12,61.03 4.40,61.03 2.34,57.06 C1.99,56.39 1.86,55.60 1.46,54.69 C0.28,51.95 0.07,76.38 0.04,225.75 ZM 269.75 232.78 C276.63,238.62 281.37,241.93 282.90,241.96 C284.48,241.98 286.41,240.71 288.52,238.25 C314.91,207.40 321.00,199.48 320.98,196.03 C320.98,194.09 320.64,191.99 320.23,191.37 C318.57,188.80 278.45,156.00 276.98,156.00 C274.52,156.00 273.18,157.38 259.41,174.00 C252.34,182.52 244.59,191.62 242.19,194.21 C238.08,198.62 237.85,199.16 238.49,202.97 C239.22,207.24 241.95,209.71 244.39,208.29 C245.13,207.86 252.40,199.62 260.53,190.00 C268.67,180.38 276.14,172.36 277.14,172.18 C278.90,171.88 288.00,178.61 288.00,180.21 C288.00,180.64 281.48,188.73 273.50,198.17 C259.92,214.26 259.00,215.61 259.00,219.50 C259.00,223.54 259.27,223.88 269.75,232.78 ZM 212.61 281.89 C224.50,291.85 234.54,300.00 234.92,300.00 C236.46,300.00 239.55,296.64 255.96,277.11 L 273.10 256.73 L 272.80 252.11 C272.53,247.95 272.24,247.47 269.83,247.19 C267.07,246.87 262.89,251.27 243.12,275.25 C239.01,280.23 236.01,283.00 234.72,283.00 C232.45,283.00 224.00,276.48 224.00,274.73 C224.00,274.10 225.52,271.99 227.37,270.04 C229.23,268.09 235.76,260.49 241.87,253.15 C252.15,240.82 253.00,239.48 252.97,235.65 C252.94,231.60 252.67,231.27 241.89,222.25 C235.80,217.16 229.98,213.00 228.94,213.00 C226.73,213.00 225.98,213.80 206.13,237.50 C192.05,254.30 191.04,255.78 191.02,259.64 L 191.00 263.78 ZM 318.00 176.08 C324.07,181.20 329.42,184.95 330.69,184.97 C333.07,185.00 334.44,183.54 355.93,158.00 C366.60,145.32 368.97,141.92 368.98,139.33 C369.01,134.46 368.08,133.00 364.96,133.00 C362.64,133.00 360.99,134.40 355.81,140.75 C341.08,158.84 331.85,169.00 330.15,169.00 C329.17,169.00 320.30,162.26 310.43,154.02 C300.57,145.78 291.72,139.03 290.77,139.02 C289.82,139.01 288.30,140.14 287.39,141.53 C284.40,146.10 286.40,149.53 297.53,158.86 C303.01,163.46 312.23,171.21 318.00,176.08 ZM 229.08 251.13 C222.90,258.48 217.05,265.07 216.08,265.76 C214.60,266.83 213.73,266.59 210.42,264.18 C203.74,259.33 203.38,258.50 206.27,254.75 C211.91,247.46 226.61,230.60 228.20,229.62 C229.54,228.80 230.82,229.24 234.17,231.67 C236.93,233.66 238.65,234.82 239.03,236.31 C239.61,238.61 236.99,241.73 230.04,249.99 C229.73,250.36 229.41,250.74 229.08,251.13 ZM 296.37 211.69 C289.13,220.29 283.94,225.61 282.60,225.79 C280.49,226.08 272.00,219.81 272.00,217.96 C272.00,216.18 294.19,190.47 296.49,189.58 C298.49,188.81 299.62,189.27 303.44,192.40 C305.95,194.45 308.00,196.53 308.00,197.01 C308.00,197.49 302.77,204.09 296.37,211.69 ZM 0.00 0.00 L 0.08 8.50 L 1.56 5.77 C2.38,4.27 4.27,2.38 5.77,1.56 L 8.50 0.08 Z"
       fill="rgb(77,77,77)"
       id="path1" />
    <path
       d="M 0.04,225.75 C 0.06,144.88 0.13,100.63 0.37,77.49 0.59,78.38 0.95,77.9 1.57,76.76 1.97,76.01 2.19,75.35 2.54,74.78 4.89,70.98 13.4,70.98 127.3,71 H 152.45 296 v 3.44 c 0,1.89 -0.4,3.69 -0.9,4 -0.8,0.49 -55.6,65.47 -64.1,76 -1.93,2.39 -9.15,11.03 -16.05,19.2 -6.91,8.17 -35.01,41.63 -62.46,74.36 -27.45,32.73 -54.99,65.55 -61.2,72.94 -6.21,7.38 -11.29,13.97 -11.29,14.62 0,0.66 0.6,1.7 1.34,2.31 0.97,0.8 44.52,1.18 157.09,1.37 l 155.74,0.26 2.66,3.17 c 1.47,1.74 2.78,3.21 2.92,3.25 0.1,0.03 0.25,5.72 0.25,14.95 V 400 H 0 v -3.29 c 0.01,3.21 0.24,3.29 3.72,3.29 3.63,0 3.67,-0.04 1.54,-1.53 -1.21,-0.85 -2.88,-2.52 -3.73,-3.73 -1.39,-1.98 -1.52,-2.09 -1.53,0.84 z m 212.57,56.14 -21.61,-18.11 0.02,-4.14 c 0,-0.59 0.03,-1.13 0.12,-1.68 0.94,1.99 7.35,7.88 20.96,19.32 11.61,9.74 21.84,17.71 22.75,17.7 0.91,0 2.13,-0.34 2.72,-0.75 0.93,-0.64 9.14,-10.24 22.81,-26.68 2.27,-2.72 6.06,-7.15 8.43,-9.85 2.14,-2.44 3.46,-4.58 3.94,-6.29 0.02,0.22 0.03,0.46 0.05,0.7 l 0.3,4.62 -17.14,20.38 c -16.41,19.53 -19.5,22.89 -21.04,22.89 -0.38,0 -10.42,-8.15 -22.31,-18.11 z M 318,176.08 c -5.77,-4.87 -14.99,-12.62 -20.47,-17.22 -10.1,-8.47 -12.68,-12.08 -10.84,-16.09 -0.28,0.84 -0.08,1.5 0.57,2.47 0.68,1.01 10.24,9.46 21.24,18.78 15.54,13.17 20.56,16.89 22.5,16.71 1.9,-0.17 6.5,-4.99 19.29,-20.23 9.23,-11 17.24,-20.8 17.8,-21.79 0.52,-0.91 0.73,-1.81 0.68,-2.61 0.16,0.85 0.22,1.92 0.21,3.23 -0.01,2.59 -2.38,5.99 -13.05,18.67 -21.49,25.54 -22.86,27 -25.24,26.97 -1.27,-0.02 -6.62,-3.77 -12.69,-8.89 z m -48.25,56.7 C 259.27,223.88 259,223.54 259,219.5 c 0,-3.74 0.84,-5.13 12.91,-19.45 -9.41,11.25 -12.9,16.12 -12.7,17.62 0.18,1.35 4.33,5.66 10.79,11.21 5.89,5.05 11.44,9.03 12.65,9.06 2.36,0.07 6.03,-3.88 26.33,-28.27 10.92,-13.11 12.24,-15.1 11.43,-17.17 -0.53,-1.36 -10.22,-9.98 -20.31,-18.5 9.88,8.11 19.34,16.15 20.13,17.37 0.41,0.62 0.75,2.72 0.75,4.66 0.02,3.45 -6.07,11.37 -32.46,42.22 -2.11,2.46 -4.04,3.73 -5.62,3.71 -1.53,-0.03 -6.27,-3.34 -13.15,-9.18 z M 276.98,156 c 0.02,0 0.04,0.01 0.07,0.02 -2.53,0.02 -3.14,0.65 -20.94,21.96 -17.32,20.72 -19.16,23.85 -15.22,25.96 2.73,1.46 4.58,-0.27 20.59,-19.32 9,-10.72 14.63,-16.62 15.85,-16.62 2.59,0 11.67,7.76 11.67,9.98 0,0.23 -0.38,0.91 -1.07,1.93 -0.88,-2 -9.13,-8.02 -10.79,-7.73 -1,0.18 -8.47,8.2 -16.61,17.82 -8.13,9.62 -15.4,17.86 -16.14,18.29 -2.44,1.42 -5.17,-1.05 -5.9,-5.32 -0.64,-3.81 -0.41,-4.35 3.7,-8.76 2.4,-2.59 10.15,-11.69 17.22,-20.21 13.77,-16.62 15.11,-18 17.57,-18 z m -38.7,83.46 c 0.74,-1.32 0.97,-2.29 0.75,-3.15 -0.38,-1.49 -2.1,-2.65 -4.86,-4.64 -3.35,-2.43 -4.63,-2.87 -5.97,-2.05 -1.59,0.98 -16.29,17.84 -21.93,25.13 -2.89,3.75 -2.53,4.58 4.15,9.43 0.42,0.31 0.8,0.58 1.15,0.82 -0.73,-0.46 -1.59,-1.04 -2.64,-1.78 -8.28,-5.77 -8.14,-6.3 6.07,-23.27 8.05,-9.62 12.85,-14.55 14.35,-14.75 2.79,-0.36 11.65,7.11 11.65,9.82 0,0.46 -1.02,2.09 -2.72,4.44 z M 282,225.75 c -3.59,-0.39 -11,-6.41 -11,-9.18 0,-3.56 23.51,-31.57 26.5,-31.57 2.75,0 11.5,7.54 11.5,9.91 0,0.25 -0.37,0.93 -1.04,1.94 -0.3,-0.67 -2.22,-2.57 -4.52,-4.45 -3.82,-3.13 -4.95,-3.59 -6.95,-2.82 -2.3,0.89 -24.49,26.6 -24.49,28.38 0,1.71 7.21,7.17 10,7.79 z m -48.57,56.89 c -1.47,-0.3 -3.12,-1.36 -5.43,-3.03 -5.9,-4.27 -6.3,-7.15 -1.71,-12.29 13.93,-15.62 26.76,-32.04 26.5,-33.93 -0.22,-1.6 -8.07,-8.86 -14.76,-14.27 1.25,0.98 2.54,2.03 3.86,3.13 10.78,9.02 11.05,9.35 11.08,13.4 0.03,3.83 -0.82,5.17 -11.1,17.5 -6.11,7.34 -12.64,14.94 -14.5,16.89 -1.85,1.95 -3.37,4.06 -3.37,4.69 0,1.5 6.23,6.52 9.43,7.91 z M 396.28,400 c 3.63,0 3.72,-0.09 3.72,-3.72 0,-3.63 -0.04,-3.67 -1.53,-1.54 -0.85,1.21 -2.52,2.88 -3.73,3.73 -2.13,1.49 -2.09,1.53 1.54,1.53 z M 191.79,255.97 c 1.33,-2.83 4.89,-7.2 14.34,-18.47 -6.74,8.03 -12.35,15.3 -14.34,18.47 z m 45.41,25.61 c 1.52,-1.29 3.53,-3.43 5.92,-6.33 -2.57,3.12 -4.37,5.18 -5.92,6.33 z M 368.29,134.59 c -0.58,-0.94 -1.69,-1.56 -3.16,-1.59 1.59,0.03 2.58,0.46 3.16,1.59 z m -96.44,113.26 c -0.5,-0.34 -1.18,-0.56 -2.02,-0.66 0.97,0.11 1.6,0.26 2.02,0.66 z m -56.09,18.13 c 0.11,-0.07 0.21,-0.14 0.32,-0.22 0.53,-0.37 2.48,-2.47 5.14,-5.49 -2.66,3.02 -4.6,5.12 -5.11,5.48 -0.12,0.09 -0.23,0.16 -0.35,0.23 z M 363.07,133.41 c 0.64,-0.3 1.24,-0.41 1.89,-0.41 h 0.02 c -0.66,0 -1.27,0.11 -1.91,0.41 z m -75.68,88.37 c -0.99,1.01 -1.84,1.85 -2.56,2.48 0.72,-0.64 1.58,-1.47 2.56,-2.48 z"
       fill="#909090"
       id="path2"
       sodipodi:nodetypes="cccccccscccscscccccscccscccccccccccccccccscccccccccccccccscsccccccccccsccccsscccccccsccccccccccsccssscccsccccccccccscssccsccccccccccccccccccsccccc" />
  </g>
</svg>
